<svg xmlns="http://www.w3.org/2000/svg" width="208" height="48" viewBox="0 0 208 48">
    <g fill="none" fill-rule="evenodd">
        <path fill="#14ADA4" d="M4.362 19.644l-.052.243A20.075 20.075 0 0 0 3.89 24c0 2.727.541 5.326 1.521 7.693a20.139 20.139 0 0 0 4.368 6.528 20.139 20.139 0 0 0 6.528 4.368A20.063 20.063 0 0 0 24 44.11a20.06 20.06 0 0 0 7.693-1.521 20.139 20.139 0 0 0 6.527-4.368A20.05 20.05 0 0 0 44.11 24v-.598H48V24c0 3.247-.647 6.346-1.82 9.175a24.04 24.04 0 0 1-13.005 13.006A23.914 23.914 0 0 1 24 48c-3.246 0-6.346-.647-9.175-1.82a24.04 24.04 0 0 1-7.795-5.21 24.034 24.034 0 0 1-5.21-7.795A23.916 23.916 0 0 1 .34 20.002a24.125 24.125 0 0 1 1.002-3.895l.172-.496h.429c3.247 0 6.346.647 9.175 1.82a24.04 24.04 0 0 1 8.445 5.888v-3.12l-14.59-8.424L6.582 8.99l.299-.518.517.298 15.682 9.055.299.172v10.814c.212.42.413.849.6 1.281l.006.017.023-.052c.184-.43.39-.867.615-1.311V17.998l.298-.172 13.534-7.814a19.996 19.996 0 0 0-5.063-3.8A20.088 20.088 0 0 0 24 3.89a20.034 20.034 0 0 0-6.308 1.013 19.974 19.974 0 0 0-5.67 2.936l-.48.354-2.309-3.115.48-.355a24.125 24.125 0 0 1 3.247-2.028A23.885 23.885 0 0 1 20.193.306 23.948 23.948 0 0 1 24 0a24.033 24.033 0 0 1 19.813 10.463l.336.493-6.621 3.993-9.092 5.25v3.053a24.046 24.046 0 0 1 8.446-5.888 23.927 23.927 0 0 1 9.175-1.82h.598v3.89h-.598a20.853 20.853 0 0 0-1.437.05 19.999 19.999 0 0 0-12.783 5.84 20.202 20.202 0 0 0-2.81 3.516 20.022 20.022 0 0 0-2.797 7.314 20.278 20.278 0 0 0-.283 3.391v.598h-.004v.067h-3.89v-.598c0-2.728-.541-5.327-1.521-7.694a20.14 20.14 0 0 0-4.369-6.527 20.157 20.157 0 0 0-5.661-3.985 19.99 19.99 0 0 0-6.14-1.762"/>
        <g fill="#FFFFFE">
            <path d="M82.765 14.512V8.943h-22.66V38.93h6.939V28.006h13.88v-5.57h-13.88v-7.924h15.72M101.7 39.443c9.423 0 16.406-6.554 16.406-15.507s-6.983-15.507-16.407-15.507c-9.467 0-16.406 6.597-16.406 15.507s6.939 15.507 16.406 15.507zm0-5.912c-5.355 0-9.382-3.897-9.382-9.595s4.027-9.595 9.381-9.595c5.355 0 9.381 3.897 9.381 9.595s-4.026 9.595-9.38 9.595zM137.682 39.443c5.226 0 9.553-1.885 12.38-5.355l-4.455-4.112c-2.013 2.356-4.54 3.555-7.539 3.555-5.612 0-9.596-3.94-9.596-9.595 0-5.654 3.984-9.595 9.596-9.595 2.998 0 5.526 1.199 7.54 3.512l4.454-4.112c-2.827-3.427-7.154-5.312-12.336-5.312-9.339 0-16.279 6.469-16.279 15.507s6.94 15.507 16.235 15.507M164.327 39.443c8.567 0 12.723-4.284 12.723-9.289 0-11.008-17.435-7.19-17.435-12.722 0-1.892 1.585-3.434 5.697-3.434 2.656 0 5.526.77 8.31 2.356l2.143-5.27c-2.785-1.755-6.64-2.655-10.41-2.655-8.525 0-12.637 4.24-12.637 9.345 0 11.138 17.435 7.283 17.435 12.895 0 1.834-1.67 3.205-5.783 3.205-3.598 0-7.368-1.285-9.896-3.12l-2.356 5.219c2.656 2.057 7.454 3.47 12.21 3.47M207.207 8.943h-6.811l-8.01 13.323-8.01-13.323h-7.37l11.61 19.277v10.709h6.94V28.306l11.651-19.363"/>
        </g>
    </g>
</svg>
